HIERARCHY
ROOT Hips
{
    OFFSET   0.000000   0.000000   0.000000
    CHANNELS 6 Xposition Yposition Zposition Zrotation Xrotation Yrotation
    JOINT Chest
    {
        OFFSET   0.000000   8.007230   0.000000
        CHANNELS 3 Zrotation Xrotation Yrotation
        JOINT Chest2
        {
            OFFSET   0.000000  22.077100   0.000000
            CHANNELS 3 Zrotation Xrotation Yrotation
            JOINT Neck
            {
                OFFSET   0.000000  23.254700   0.000000
                CHANNELS 3 Zrotation Xrotation Yrotation
                JOINT Head
                {
                    OFFSET   0.000010  14.370000   1.956610
                    CHANNELS 3 Zrotation Xrotation Yrotation
                    End Site
                    {
                        OFFSET   0.000000  19.566000   0.000000
                    }
                }
            }
            JOINT LeftCollar
            {
                OFFSET   3.911900  19.017000  -0.467063
                CHANNELS 3 Zrotation Xrotation Yrotation
                JOINT LeftShoulder
                {
                    OFFSET  10.383700   0.000000   0.000000
                    CHANNELS 3 Zrotation Xrotation Yrotation
                    JOINT LeftElbow
                    {
                        OFFSET  26.662100   0.001671   0.000522
                        CHANNELS 3 Zrotation Xrotation Yrotation
                        JOINT LeftWrist
                        {
                            OFFSET  28.869000   0.000037  -0.000114
                            CHANNELS 3 Zrotation Xrotation Yrotation
                            JOINT LeftFinger0
                            {
                                OFFSET   2.044650  -2.323450   3.252850
                                CHANNELS 3 Zrotation Xrotation Yrotation
                                JOINT LeftFinger01
                                {
                                    OFFSET   3.088140   0.000000   0.000000
                                    CHANNELS 3 Zrotation Xrotation Yrotation
                                    JOINT LeftFinger02
                                    {
                                        OFFSET   2.639460   0.000000   0.000000
                                        CHANNELS 3 Zrotation Xrotation Yrotation
                                        End Site
                                        {
                                            OFFSET   2.582190   0.000000   0.000000
                                        }
                                    }
                                }
                            }
                            JOINT LeftFinger1
                            {
                                OFFSET   8.364480   0.000000   3.252850
                                CHANNELS 3 Zrotation Xrotation Yrotation
                                JOINT LeftFinger11
                                {
                                    OFFSET   4.646930   0.000000   0.000000
                                    CHANNELS 3 Zrotation Xrotation Yrotation
                                    JOINT LeftFinger12
                                    {
                                        OFFSET   2.323470   0.000000   0.000000
                                        CHANNELS 3 Zrotation Xrotation Yrotation
                                        End Site
                                        {
                                            OFFSET   2.273050   0.000000   0.000000
                                        }
                                    }
                                }
                            }
                            JOINT LeftFinger2
                            {
                                OFFSET   8.364490   0.000016   1.078090
                                CHANNELS 3 Zrotation Xrotation Yrotation
                                JOINT LeftFinger21
                                {
                                    OFFSET   5.111620   0.000000   0.000000
                                    CHANNELS 3 Zrotation Xrotation Yrotation
                                    JOINT LeftFinger22
                                    {
                                        OFFSET   2.788150   0.000013   0.000000
                                        CHANNELS 3 Zrotation Xrotation Yrotation
                                        End Site
                                        {
                                            OFFSET   2.727660   0.000000   0.000000
                                        }
                                    }
                                }
                            }
                            JOINT LeftFinger3
                            {
                                OFFSET   7.899780   0.000016  -1.078090
                                CHANNELS 3 Zrotation Xrotation Yrotation
                                JOINT LeftFinger31
                                {
                                    OFFSET   4.646930   0.000000   0.000000
                                    CHANNELS 3 Zrotation Xrotation Yrotation
                                    JOINT LeftFinger32
                                    {
                                        OFFSET   2.323470   0.000000   0.000000
                                        CHANNELS 3 Zrotation Xrotation Yrotation
                                        End Site
                                        {
                                            OFFSET   2.273050   0.000000   0.000000
                                        }
                                    }
                                }
                            }
                            JOINT LeftFinger4
                            {
                                OFFSET   7.435080   0.000000  -3.252850
                                CHANNELS 3 Zrotation Xrotation Yrotation
                                JOINT LeftFinger41
                                {
                                    OFFSET   3.717550   0.000000   0.000000
                                    CHANNELS 3 Zrotation Xrotation Yrotation
                                    JOINT LeftFinger42
                                    {
                                        OFFSET   1.858760   0.000000   0.000000
                                        CHANNELS 3 Zrotation Xrotation Yrotation
                                        End Site
                                        {
                                            OFFSET   1.818440   0.000000   0.000000
                                        }
                                    }
                                }
                            }
                        }
                    }
                }
            }
            JOINT RightCollar
            {
                OFFSET  -3.911900  19.017000  -0.467064
                CHANNELS 3 Zrotation Xrotation Yrotation
                JOINT RightShoulder
                {
                    OFFSET -10.383700   0.000000   0.000000
                    CHANNELS 3 Zrotation Xrotation Yrotation
                    JOINT RightElbow
                    {
                        OFFSET -26.662100   0.001633   0.000260
                        CHANNELS 3 Zrotation Xrotation Yrotation
                        JOINT RightWrist
                        {
                            OFFSET -28.869000  -0.000045  -0.000080
                            CHANNELS 3 Zrotation Xrotation Yrotation
                            JOINT RightFinger0
                            {
                                OFFSET  -2.044660  -2.323490   3.252850
                                CHANNELS 3 Zrotation Xrotation Yrotation
                                JOINT RightFinger01
                                {
                                    OFFSET  -3.088140   0.000000   0.000000
                                    CHANNELS 3 Zrotation Xrotation Yrotation
                                    JOINT RightFinger02
                                    {
                                        OFFSET  -2.639450   0.000000   0.000000
                                        CHANNELS 3 Zrotation Xrotation Yrotation
                                        End Site
                                        {
                                            OFFSET  -2.582190   0.000000   0.000000
                                        }
                                    }
                                }
                            }
                            JOINT RightFinger1
                            {
                                OFFSET  -8.364480   0.000000   3.252850
                                CHANNELS 3 Zrotation Xrotation Yrotation
                                JOINT RightFinger11
                                {
                                    OFFSET  -4.646920   0.000000   0.000000
                                    CHANNELS 3 Zrotation Xrotation Yrotation
                                    JOINT RightFinger12
                                    {
                                        OFFSET  -2.323470   0.000000   0.000000
                                        CHANNELS 3 Zrotation Xrotation Yrotation
                                        End Site
                                        {
                                            OFFSET  -2.273050   0.000000   0.000000
                                        }
                                    }
                                }
                            }
                            JOINT RightFinger2
                            {
                                OFFSET  -8.364480   0.000000   1.078090
                                CHANNELS 3 Zrotation Xrotation Yrotation
                                JOINT RightFinger21
                                {
                                    OFFSET  -5.111610   0.000000   0.000000
                                    CHANNELS 3 Zrotation Xrotation Yrotation
                                    JOINT RightFinger22
                                    {
                                        OFFSET  -2.788160   0.000000   0.000000
                                        CHANNELS 3 Zrotation Xrotation Yrotation
                                        End Site
                                        {
                                            OFFSET  -2.727660   0.000000   0.000000
                                        }
                                    }
                                }
                            }
                            JOINT RightFinger3
                            {
                                OFFSET  -7.899780   0.000000  -1.078090
                                CHANNELS 3 Zrotation Xrotation Yrotation
                                JOINT RightFinger31
                                {
                                    OFFSET  -4.646930   0.000000   0.000000
                                    CHANNELS 3 Zrotation Xrotation Yrotation
                                    JOINT RightFinger32
                                    {
                                        OFFSET  -2.323470   0.000000   0.000000
                                        CHANNELS 3 Zrotation Xrotation Yrotation
                                        End Site
                                        {
                                            OFFSET  -2.273050   0.000000   0.000000
                                        }
                                    }
                                }
                            }
                            JOINT RightFinger4
                            {
                                OFFSET  -7.435090   0.000000  -3.252850
                                CHANNELS 3 Zrotation Xrotation Yrotation
                                JOINT RightFinger41
                                {
                                    OFFSET  -3.717550   0.000000   0.000000
                                    CHANNELS 3 Zrotation Xrotation Yrotation
                                    JOINT RightFinger42
                                    {
                                        OFFSET  -1.858760   0.000000   0.000000
                                        CHANNELS 3 Zrotation Xrotation Yrotation
                                        End Site
                                        {
                                            OFFSET  -1.818440   0.000000   0.000000
                                        }
                                    }
                                }
                            }
                        }
                    }
                }
            }
        }
    }
    JOINT LeftHip
    {
        OFFSET   9.782990   0.000000   0.000000
        CHANNELS 3 Zrotation Xrotation Yrotation
        JOINT LeftKnee
        {
            OFFSET  -0.000063 -41.789100   0.001657
            CHANNELS 3 Zrotation Xrotation Yrotation
            JOINT LeftAnkle
            {
                OFFSET   0.000078 -41.133200  -0.000113
                CHANNELS 3 Zrotation Xrotation Yrotation
                JOINT LeftToe
                {
                    OFFSET   0.000000  -6.358970  14.674500
                    CHANNELS 3 Zrotation Xrotation Yrotation
                    End Site
                    {
                        OFFSET   0.000000   0.000000   3.913200
                    }
                }
            }
        }
    }
    JOINT RightHip
    {
        OFFSET  -9.782990   0.000000   0.000000
        CHANNELS 3 Zrotation Xrotation Yrotation
        JOINT RightKnee
        {
            OFFSET   0.000053 -41.789200   0.000277
            CHANNELS 3 Zrotation Xrotation Yrotation
            JOINT RightAnkle
            {
                OFFSET   0.000030 -41.133200  -0.000150
                CHANNELS 3 Zrotation Xrotation Yrotation
                JOINT RightToe
                {
                    OFFSET   0.000000  -6.358960  14.674500
                    CHANNELS 3 Zrotation Xrotation Yrotation
                    End Site
                    {
                        OFFSET   0.000000   0.000000   3.913200
                    }
                }
            }
        }
    }
}
MOTION
Frames: 4
Frame Time:   0.016667
  2.098610  89.605600   0.928755  -3.885600 -13.123100  -1.747450   0.621338   8.152150  -0.320078   1.309650  16.300200  -0.741866   2.410330  -0.128293   0.005932   3.959910  -0.259029   8.747350  -6.060130  -2.720830  -0.305627 -49.847700  11.288400 -69.086100  14.490800 -28.367200 -106.589000  -2.158930 -15.393200 -15.776800  39.538800  27.609900 -65.768400 -23.460700   0.000855   0.000464  -6.730350  -0.001445  -0.001054 -16.698800   2.681230  -8.866770 -13.832700  -0.002209   0.001069  -9.682870   0.002330  -0.005057 -89.000300   0.012577   0.000753 -93.564700   0.005054   0.000822 -70.173500  -0.008925   0.001118 -88.996100  -4.998930   0.089325 -91.271800   0.003062   0.008974 -68.453800   0.006473   0.002786 -88.986100  -9.999540   0.167900 -110.000000  -0.008044   0.001742 -80.000000  -0.001938  -0.004394   9.511460  -0.171786   9.513150  68.558500  21.937700   1.048010  -3.390030  -3.073100  17.429600 -14.970000  -9.412640  -1.159160 -39.641700  22.902400  56.829900  22.219000  -0.053282  -0.101731   6.109220  -0.105092  -0.079198  26.468800   4.390080   8.740370  21.930300  -0.003763   0.001352  15.351300  -0.002588   0.000976  28.645100   0.350385   0.641393  38.125600  -0.038751   0.018422  25.391700   0.000153  -0.003925  28.239200   0.345807   0.643879  33.728500  -0.090061   0.046544  22.463100  -0.006473   0.032972  34.937000   0.265394   0.362774  52.406900   0.000000   0.001979  34.903000   0.001313   0.005155   2.772350  15.083100   8.437340   0.669258   0.077869  11.125300  -1.187970  -3.260090   2.625370   0.000000   0.000000   0.000000   3.431190  13.270600  -0.976636  -1.160270   3.401850  -9.584340   0.640524  -4.582400   0.509573   0.000000   0.000000  -0.000000
  2.095070  89.605800   0.928590  -3.881530 -13.108000  -1.729800   0.618961   8.152470  -0.318455   1.304390  16.300900  -0.738329   2.398520  -0.136280   0.005677   3.940500  -0.275154   8.728290  -6.064970  -2.722520  -0.306995 -50.027000  11.282000 -69.031900  14.442800 -28.225900 -106.664000  -2.359090 -15.265300 -15.773700  39.810500  27.656100 -65.612700 -23.177200   0.001060   0.000443  -6.588610  -0.001137  -0.000953 -16.606500   2.691010  -8.944770 -13.759300  -0.001659   0.001256  -9.631520   0.002331  -0.004916 -89.000200   0.012656   0.000739 -93.529300   0.005425   0.000827 -70.146900  -0.009470   0.001214 -88.996100  -4.998970   0.089725 -91.167500   0.003262   0.009475 -68.375600   0.006480   0.002936 -88.986200  -9.999610   0.167645 -110.000000  -0.008077   0.001755 -80.000000  -0.001946  -0.004406   9.501840  -0.166955   9.518140  68.543900  21.954400   1.057160  -3.385570  -3.072790  17.431600 -14.954900  -9.403890  -1.184000 -39.632200  22.875700  56.793000  22.233100  -0.025732  -0.044588   6.116510  -0.043626  -0.033039  26.454200   4.378190   8.722350  21.917700  -0.003693   0.001290  15.342400  -0.002534   0.000934  28.645400   0.343793   0.629355  38.100100  -0.111783   0.042858  25.374600   0.000311  -0.003485  28.233300   0.339265   0.631810  33.682200  -0.145108   0.059903  22.432200  -0.006768   0.088222  34.918000   0.265657   0.369356  52.378400   0.000000   0.002014  34.884000   0.001388   0.005208   2.775880  15.083600   8.438060   0.669379   0.043692  11.111000  -1.186840  -3.241780   2.623830   0.000000   0.000000  -0.000000   3.431890  13.264500  -0.985145  -1.153480   3.382800  -9.578420   0.638151  -4.572630   0.496679   0.000000   0.000000   0.000000
  2.090930  89.606100   0.928399  -3.876530 -13.090900  -1.708220   0.615033   8.153000  -0.319304   1.296600  16.301900  -0.739584   2.372230  -0.144193   0.005422   3.897300  -0.291053   8.700990  -6.071110  -2.721690  -0.310264 -50.169100  11.290300 -68.977600  14.447900 -28.160700 -106.713000  -2.466150 -15.129200 -15.814900  39.976300  27.579900 -65.410800 -23.024600   0.001250   0.000629  -6.512270  -0.000826  -0.000839 -16.700000   2.694750  -8.902970 -13.835300  -0.001113   0.001420  -9.684710   0.002309  -0.004778 -89.000100   0.012731   0.000726 -93.433300   0.005770   0.000830 -70.074900  -0.009972   0.001321 -88.979100  -4.999010   0.090158 -91.045600   0.003472   0.009933 -68.284100   0.006487   0.003089 -88.986200  -9.999670   0.167445 -110.000000  -0.008106   0.001771 -80.000000  -0.001954  -0.004419   9.497660  -0.165790   9.518060  68.529600  21.985300   1.066740  -3.364070  -3.108170  17.415400 -14.958800  -9.388740  -1.207720 -39.625000  22.857800  56.766200  22.237800   0.002981  -0.028296   6.119360  -0.007693  -0.033381  26.433700   4.376860   8.724510  21.900900  -0.003612   0.001224  15.330700  -0.002485   0.000890  28.645500   0.344406   0.630531  38.062500  -0.145411   0.044785  25.349500   0.000465   0.011290  28.224600   0.339815   0.633015  33.613300  -0.143579   0.047609  22.386400  -0.007009   0.102566  34.889800   0.265279   0.379133  52.336100   0.000000   0.002047  34.855800   0.001466   0.005259   2.782080  15.073800   8.438290   0.665081   0.042040  11.094400  -1.189530  -3.240510   2.619940  -0.000000   0.000000   0.000000   3.428590  13.258000  -0.989255  -1.144440   3.362410  -9.575010   0.634760  -4.564470   0.479345   0.000000   0.000000   0.000000
  2.087410  89.606300   0.928212  -3.870890 -13.072600  -1.685050   0.610978   8.153410  -0.321074   1.288540  16.302700  -0.742474   2.345390  -0.151620   0.005168   3.853200  -0.305977   8.682980  -6.075400  -2.717230  -0.320548 -50.278200  11.301900 -68.913000  14.458100 -28.124400 -106.766000  -2.505970 -15.042100 -15.859300  40.039100  27.546000 -65.243400 -22.861000   0.001426   0.000815  -6.430480  -0.000518  -0.000711 -16.847300   2.695770  -8.830680 -13.954300  -0.000579   0.001555  -9.768050   0.002263  -0.004645 -89.000000   0.012803   0.000714 -93.200500   0.006082   0.000838 -69.900400  -0.010429   0.001442 -88.962100  -4.999050   0.090403 -90.859200   0.003692   0.010343 -68.144300   0.006492   0.003245 -88.986300  -9.999740   0.167299 -110.000000  -0.008134   0.001787 -80.000000  -0.001961  -0.004430   9.494530  -0.165388   9.517490  68.517000  22.018500   1.076810  -3.338050  -3.160050  17.385400 -14.963600  -9.378360  -1.224720 -39.623100  22.849800  56.753200  22.239400   0.020441  -0.025969   6.120320   0.008761  -0.035779  26.420200   4.376590   8.732010  21.890000  -0.003531   0.001157  15.323000  -0.002435   0.000843  28.645700   0.347491   0.636231  38.037500  -0.157708   0.045061  25.332900   0.000618   0.030650  28.218800   0.342789   0.638770  33.567500  -0.132869   0.027322  22.356000  -0.007123   0.104616  34.871000   0.263929   0.385639  52.307900   0.000000   0.002082  34.837100   0.001544   0.005311   2.790660  15.046800   8.437820   0.662755   0.041806  11.076900  -1.196290  -3.240340   2.614790   0.000000   0.000000  -0.000000   3.423570  13.250800  -0.990544  -1.134450   3.341940  -9.573390   0.630555  -4.557170   0.460342   0.000000   0.000000  -0.000000
